<svg xmlns="http://www.w3.org/2000/svg" class="svg-logo" width="2400" height="2400" viewBox="0 0 630 430" style="height: auto;"><rect width="630" height="630" y="-100" rx="0" ry="0" fill="transparent" fill-opacity="0"></rect><g data-element="wrapper" transform="translate(-157.30477525436908 -107.3667628034566) scale(1.499380238902759)"><g data-element="container" transform="translate(221.28615385056227 121.28590005012076) scale(0.3123809572250124)"><g ><path id="fill_x5F_1_114_" d="M278.406,594.161c-1.106-0.079-2.318-0.135-3.533-0.19
	c-1.589-0.073-3.182-0.141-4.768-0.287c1.853-1.329,3.691-2.696,5.538-4.165c5.078-4.162,9.858-8.274,14.456-12.328
	c4.595-4.165,9.018-8.347,13.2-12.468c4.51-4.891,8.54-9.495,12.141-13.847l6.872-8.312l-10.777,0.465l-4.194,0.208
	c-2.716,0.143-5.438,0.29-8.134,0.328l-2.005,0.026l-1.387,1.446c-5.698,5.936-11.921,11.921-18.495,17.789l-2.327,2.055
	c-2.538,2.251-5.16,4.581-7.718,6.489c-3.524,2.69-7.065,5.286-10.788,7.882c-4.44,3.111-9.389,6.416-15.088,10.083
	c-3.843-0.758-7.645-1.774-11.643-2.842c-2.213-0.591-4.431-1.182-6.661-1.73l-7.929-2.052c7.829-3.799,15.375-8.131,22.577-12.354
	c11.365-6.369,21.928-14.59,29.851-21.035l8.418-6.846l-25.074-3.776l-1.613,1.218c-6.506,4.926-13.44,9.117-20.777,13.551
	l-0.626,0.378c-3.761,2.233-7.674,4.484-11.646,6.679c-3.421,1.756-6.919,3.301-10.531,4.899l-1.381,0.609
	c-5.956,2.622-11.467,4.905-16.782,6.954c-2.254-0.825-4.698-1.899-7.425-3.263c0,0-15.316-7.376-16.914-8.169
	c1.068-0.298,5.368-1.56,6.451-1.858c6.618-2.028,12.465-3.951,18.015-5.921c11.622-3.828,23.087-9.732,33.202-14.938l9.688-4.987
	l-23.895-8.824l-1.876,0.969c-3.609,1.861-7.434,3.562-11.368,5.052c-4.016,1.557-8.052,3.102-12.202,4.586
	c-6.992,2.497-16.2,5.605-25.422,7.49c-5.76,1.299-11.74,2.514-17.874,3.623c-3.36-2.025-6.53-4.437-9.861-6.969
	c-1.779-1.355-3.562-2.707-5.377-4.007c0,0-5.438-4.048-6.65-4.967c21.284-1.382,41.81-5.154,61.165-11.257l10.092-3.184
	l-21.524-13.062l-2.031,0.597c-7.212,2.119-14.257,3.243-21.717,4.434l-3.296,0.53c-8.028,1.212-17.4,2.517-26.295,2.576
	c-4.455,0.161-8.845,0.24-13.297,0.24c-1.633,0-3.275-0.012-4.926-0.032c-3.067-2.76-5.836-5.839-8.748-9.076
	c-1.373-1.528-2.745-3.053-4.153-4.551c-1.042-1.179-4.841-5.353-5.576-6.167c11.195,1.399,22.396,2.104,33.43,2.104
	c9.653,0,19.314-0.542,28.718-1.613l10.463-1.191l-18.582-17.011l-2.137,0.216c-3.676,0.372-7.461,0.544-11.909,0.544
	c-3.916,0-7.838-0.132-11.895-0.269l-1.689-0.059c-7.835-0.372-17.675-0.837-26.35-2.385c-5.903-0.986-11.862-2.06-17.918-3.278
	c-2.576-3.442-4.809-7.141-7.159-11.031c-0.969-1.604-1.938-3.208-2.933-4.794c-0.975-1.674-2.069-3.451-3.161-5.224
	c-0.381-0.615-0.755-1.223-1.127-1.829c20.233,6.568,40.662,10.651,60.89,12.164l10.516,0.784L99.84,438.83l-2.116-0.199
	c-8.816-0.834-17.049-2.766-25.013-4.63l-1.978-0.483c-7.943-1.938-16.162-3.94-23.473-6.858
	c-5.359-1.943-10.897-4.098-16.999-6.606c-2.341-4.791-4.159-9.828-6.073-15.129l-3.638-10.01c1.63,0.861,6.012,3.117,6.012,3.117
	c6.465,3.301,11.833,5.889,16.908,8.151c5.526,2.672,11.602,4.829,17.327,6.758c5.76,1.978,11.365,3.749,17.11,5.4l10.317,2.965
	l-11.058-22.841l-2.031-0.6c-7.838-2.318-15.152-5.371-23.725-9.243c-3.94-1.823-7.979-3.726-12.082-5.748l-6.132-3.094
	c-1.695-0.986-3.565-2.096-5.438-3.263c-5.043-3.038-10.15-6.284-15.249-9.688l-0.331-1.282c-0.594-2.298-1.197-4.613-1.686-6.931
	l-1.51-10.095c-0.304-2.072-1.182-7.586-1.288-8.251c5.933,4.879,12.538,9.928,20.178,15.43c10.1,7.06,21.114,13.042,31.519,18.465
	l9.48,4.941l-6.187-24.521l-1.858-1.001c-3.852-2.078-7.604-4.127-11.172-6.372c-3.392-2.245-6.94-4.668-10.487-7.212
	c-7.033-5.122-14.485-10.636-21.149-16.487c-4.098-3.691-8.432-7.82-12.863-12.266c-0.691-8.915-0.255-18.085,0.26-27.035
	c5.535,6.694,11.14,13.051,16.742,18.983c9.216,8.86,18.427,16.926,27.541,24.14l8.327,6.594l-1.335-25.212l-1.668-1.343
	c-12.942-10.408-23.941-22.595-36.48-37.692c-3.617-4.496-6.784-9.231-10.138-14.242l-0.017-0.026
	c0.284-1.791,0.536-3.585,0.787-5.382c0.635-4.531,1.235-8.813,2.341-12.978l2.128-8.315c4.115,7.68,8.277,14.924,13.063,21.998
	c6.764,9.506,14.104,19.49,22.399,28.744l7.689,8.581l0.67-11.502c0.138-2.412,0.536-4.856,0.957-7.443
	c0.246-1.516,0.492-3.035,0.691-4.56l0.258-1.996l-3.296-4.194c-4.618-5.863-9.395-11.927-13.215-18.155
	c-4.425-6.983-8.798-14.546-13.405-23.189c-2.909-5.198-5.069-10.326-7.355-15.758l-0.114-0.263c0.521-1.414,1.03-2.83,1.542-4.247
	c1.613-4.466,3.278-9.088,5.148-13.478l3.612-7.504c0.638,2.063,1.317,4.2,2.04,6.442c2.145,6.571,4.109,12.114,6.738,17.845
	c2.526,5.655,5.134,11.236,7.803,16.572c2.406,4.867,5.145,10.405,8.713,15.925l6.36,9.834l2.365-11.47
	c0.521-2.529,1.478-5.061,2.491-7.742c0.442-1.168,0.884-2.339,1.297-3.518l0.688-1.973l-0.975-1.847
	c-4.903-9.284-8.336-16.475-11.131-23.312c-3.152-8.242-6.058-16.742-8.599-25.162c-1.656-5.154-3-10.495-4.326-17.18
	c0.986-1.613,1.967-3.234,2.947-4.856c2.298-3.799,4.595-7.601,6.992-11.333l4.905-6.556c2.385,21.05,7.124,41.301,14.134,60.348
	l4.197,11.4L83.65,188c1.358-3.222,3.217-6.263,5.183-9.483l1.592-2.614l-0.603-2.04c-2.857-9.644-4.923-17.622-6.501-25.103
	c-1.408-8.069-2.587-16.724-3.576-26.295c-0.354-3.24-0.708-6.565-0.881-9.834l-0.141-7.815L91.586,90.7l5.977-5.435
	c-0.512,6.814-0.77,13.747-0.77,20.728c0,14.031,1.089,27.902,3.24,41.224l1.753,10.879l6.764-8.699
	c0.547-0.702,1.083-1.428,1.621-2.154c0.679-0.919,1.361-1.847,2.087-2.734l5.459-6l-0.211-2.119
	c-0.875-8.848-1.431-17.584-1.654-25.97c0.176-8.35,0.656-17.3,1.425-26.382l1.01-9.992l1.308-7.613l15.304-11.38l6.91-4.221
	c-5.555,20.359-8.655,40.932-9.231,61.317l-0.316,11.259l12.951-11.769l6.404-4.698l0.181-2.163
	c0.676-7.914,1.739-16.367,3.255-25.844c1.762-8.248,3.916-16.938,6.354-25.592l2.912-9.62c0.723-2.119,1.557-4.294,2.409-6.515
	l0.278-0.732l17.218-8.286c2.494-0.975,5.072-1.943,7.701-2.912c-3.916,7.715-7.501,15.416-10.358,23.775
	c-1.935,5.207-3.878,10.882-5.906,17.239l-0.749,2.462c-0.632,2.052-1.259,4.092-1.791,6.222c-2.122,9.319-2.122,9.319-2.122,9.916
	v8.517l12.618-7.654c1.039-0.565,2.292-1.15,3.53-1.733l3.635-1.742l0.591-2.06c2.227-7.765,4.955-16.062,8.104-24.67
	c2.816-6.954,6.257-14.382,11.104-23.936c2.716-5.277,5.511-10.703,8.605-15.547l18.577-4.753c2.646-0.626,5.341-1.112,8.113-1.551
	c-5.122,6.597-10.176,13.674-14.699,21.395c-6.831,11.47-12.427,21.158-16.917,32.347l-3.989,9.954l12.141-4.422
	c3.146-1.165,6.117-2.265,9.137-2.886l2.233-0.462l1.054-2.022c4.241-8.16,8.403-15.553,12.72-22.604
	c4.382-7.098,9.395-13.586,14.701-20.456l0.77-0.998l2.766-3.442c2.777-3.483,5.64-7.065,8.593-10.25
	c2.412-0.114,4.826-0.246,7.241-0.375c6.538-0.354,13.297-0.72,19.879-0.72c0.047,0,0.091,0,0.135,0
	c-1.604,1.393-3.237,2.833-4.905,4.326c-4.797,4.785-9.161,9.328-13.34,13.873c-4.2,4.627-8.192,9.167-12.009,13.709
	c-3.55,4.294-6.776,8.997-9.898,13.542l-6.972,10.141l10.674-1.396c1.496-0.196,2.985-0.451,4.472-0.708
	c2.596-0.445,5.046-0.866,7.449-0.934l2.216-0.064l1.387-1.73c9.135-11.391,21.465-25.97,35.854-37.703
	c4.575-3.916,9.173-7.692,14.078-11.552c4.136,0.506,8.251,1.147,12.378,1.785l14.47,2.233c-8.037,4.867-15.395,10.109-21.38,14.52
	l-3.219,2.409c-3.89,2.9-7.566,5.64-11.283,8.968c-5.134,4.595-9.331,8.541-13.2,12.413l-7.654,7.66l25.232,1.215l1.46-1.297
	c6.243-5.537,13.03-10.701,20.017-15.937c3.541-2.555,7.215-5.16,11.008-7.709c3.503-2.142,7.352-4.39,11.321-6.644
	c4.677-2.66,9.79-5.394,15.98-8.541c3.656,1.016,7.235,2.365,10.993,3.781c2.259,0.852,4.522,1.706,6.808,2.488l7.61,2.833
	c-7.908,2.941-15.702,6.457-23.59,10.095c-11.341,4.923-22.329,11.921-31.733,18.088l-9.123,5.985l24.694,6.24l1.744-1.112
	c6.378-4.062,12.96-7.194,19.929-10.51l2.64-1.259c3.951-1.885,8.02-3.714,12.205-5.482c3.176-1.384,6.278-2.423,9.562-3.521
	l2.897-0.978c5.227-1.709,10.894-3.43,17.219-5.233l3.082,1.522c0,0,18.907,11.391,20.35,12.284
	c-21.094,3.379-41.175,9.081-59.845,17.01l-9.697,4.115l22.534,10.967l8.163-3.061l5.783-1.686c4.062-1.18,8.204-2.303,12.46-3.369
	c8.936-2.169,17.675-4.191,25.993-5.034c6.383-0.825,12.31-1.461,18.161-1.946c3.073,2.295,5.927,4.923,8.927,7.686
	c1.718,1.583,3.436,3.167,5.201,4.689c1.109,1.036,5.292,4.829,6.114,5.581c-2.725-0.079-5.441-0.12-8.137-0.12
	c-18.48,0-36.582,1.856-53.807,5.517l-10.337,2.198l20.172,15.094l2.078-0.398c7.61-1.458,15.003-1.94,22.826-2.453l2.605-0.17
	c4.984-0.228,10.302-0.468,15.565-0.468c3.948,0,7.51,0.132,10.885,0.404c5.933,0.383,12.003,0.916,18.129,1.589
	c2.722,2.965,5.169,6.252,7.744,9.705c1.261,1.692,2.523,3.383,3.819,5.043c1.103,1.548,2.371,3.231,3.638,4.914
	c0.436,0.582,0.869,1.159,1.299,1.733c-19.191-4.253-38.418-6.404-57.31-6.404c-1.496,0-2.988,0.015-4.475,0.041l-10.534,0.19
	l16.894,18.702l2.78-0.015c7.818,0,15.243,0.957,23.104,1.97l1.636,0.211c8.21,1.183,17.596,2.532,26.055,4.897
	c6.647,1.774,12.228,3.36,17.444,4.961c2.537,4.071,4.613,8.432,6.796,13.021l1.747,3.65c0.916,2.031,1.967,4.15,3.021,6.269
	c0.187,0.38,0.375,0.755,0.559,1.133c-2.198-0.91-4.341-1.747-6.357-2.523c-6.053-2.409-11.982-4.598-17.567-6.48l-2.125-0.723
	c-2.236-0.764-4.44-1.513-6.752-2.128l-8.938-2.233c-6.006-1.411-11.886-2.622-17.584-3.714l-10.601-2.034l13.179,21.72l2.09,0.401
	c8.59,1.648,16.712,4.358,24.565,6.975l3.272,1.165c7.273,2.576,14.795,5.236,21.366,8.573c5.131,2.458,10.382,5.134,16.086,8.186
	c0.19,0.518,0.383,1.033,0.58,1.548c0.808,2.145,1.572,4.168,2.069,6.193l2.652,10.247c0.518,2.175,1.124,4.431,1.73,6.691
	c0.117,0.436,0.234,0.869,0.351,1.302c-7.376-4.979-14.859-9.43-21.632-13.39c-5.081-3.091-10.774-5.716-16.279-8.254
	c-6.015-2.69-11.473-4.993-16.873-7.118l-9.901-3.893l8.596,23.608l4.475,1.955c3.076,1.329,6.255,2.704,9.003,4.168
	c3.764,1.973,7.56,4.106,11.35,6.24l3.143,1.879c6.544,3.901,13.314,7.932,19.27,12.448c4.452,3.278,9.076,6.893,14.134,11.055
	l1.285,8.555c0.19,2.3,0.31,4.897,0.433,7.519l0.524,10.806c-6.044-5.985-12.249-11.76-18.536-17.254
	c-8.312-6.893-17.693-13.665-29.617-21.392l-8.933-5.786l3.755,24.969l1.765,1.18c3.539,2.362,7.077,4.897,10.616,7.49
	c2.854,2.207,5.666,4.624,8.546,7.095l1.18,1.013c6.6,5.819,13.22,12.041,19.627,18.451c3.863,4.299,7.733,8.813,11.397,13.305
	l-0.743,13.841l-2.008,13.08c-5.4-8.069-10.133-14.538-15.015-20.561c-7.946-9.304-16.279-18.187-24.843-26.497l-7.575-7.349
	l-1.323,25.171l1.475,1.504c2.968,3.023,5.933,6.17,8.898,9.372l4.437,4.97l3.825,4.87c5.116,6.609,10.376,13.94,15.606,21.758
	c2.947,4.238,5.195,8.432,7.581,12.872l1.285,2.38c-0.48,1.812-0.94,3.635-1.402,5.461c-1.062,4.215-2.16,8.573-3.53,12.685
	l-2.877,7.902c-0.858-2.031-1.756-4.103-2.693-6.225l-0.404-0.913c-2.435-5.514-4.739-10.724-7.94-16.18
	c-6.088-10.595-12.179-20.944-19.481-30.664l-7.379-9.822l-1.226,12.222c-0.228,2.283-0.869,4.583-1.545,7.021
	c-0.424,1.522-0.843,3.047-1.185,4.595l-0.433,1.967l1.1,1.689c4.578,7.013,9.375,14.5,13.297,22.159
	c3.729,7.461,7.349,15.421,11.049,24.296c2.394,5.587,4.191,11.195,5.883,16.657l-1.876,3.91c-2.104,4.411-4.212,8.827-6.465,13.124
	l-4.311,7.098c-0.471-2.251-0.954-4.469-1.455-6.656l-2.102-8.959c-0.559-2.119-1.215-4.159-1.87-6.182l-0.969-3.058
	c-1.815-5.555-3.819-11.227-6.155-17.429c-1.864-4.905-4.18-10.706-7.229-16.677l-5.339-10.443l-3.506,11.192
	c-0.884,2.819-2.21,5.526-3.612,8.391l-2.084,4.332l0.79,1.955c3.076,7.607,6.284,15.825,8.912,24.372
	c2.292,8.453,4.364,17.204,6.117,25.856l0.544,2.851c0.436,2.268,0.884,4.572,1.212,6.79l0.901,7.85l-1.103,1.481
	c-3.413,4.598-6.817,9.181-10.341,13.683l-5.497,6.047c-0.363-21.167-3.161-41.813-8.33-61.434l-2.833-10.768l-5.877,9.457
	l-1.06,1.753c-0.661,1.106-1.323,2.227-2.066,3.266l-5.002,6.667l0.427,2.11c1.724,8.482,3.114,17.104,4.136,25.63
	c0.673,8.827,1.051,17.789,1.106,26.432l0.006,2.5c0.012,2.444,0.026,4.94-0.061,7.431l-0.621,7.785l-14.116,12.811l-6.503,4.85
	c2.64-15.167,3.972-30.392,3.972-45.416c0-5.505-0.184-11.057-0.547-16.504l-0.746-11.131l-11.821,12.814l-5.903,5.259l0.018,2.163
	c0.061,8.848-0.214,17.593-0.825,25.99c-0.94,8.426-2.257,17.286-3.89,26.154l-1.967,9.881l-2.002,7.425l-16.34,9.913l-7.253,3.515
	c7.481-19.695,12.509-39.878,14.977-60.155l1.355-11.137l-13.958,10.434l-6.784,4.086l-0.392,2.104
	c-1.583,8.456-3.515,16.99-5.74,25.37c-2.365,7.82-5.242,16.01-8.751,24.881l-3.82,9.363c-1.004,2.377-2.148,4.616-3.345,6.942
	l-17.953,6.55c-2.564,0.796-5.224,1.531-7.92,2.239c4.765-7.507,8.921-14.681,12.6-22.709c5.239-11.183,10.2-21.779,13.727-33.729
	l3.053-10.335l-15.354,7.346c-0.995,0.468-2.046,0.822-3.097,1.188c-0.82,0.284-1.642,0.571-2.464,0.893l-1.952,0.77L387.117,529
	c-2.912,7.487-6.413,15.477-10.399,23.754c-3.957,7.733-8.573,15.196-13.346,22.785l-1.241,1.908
	c-2.819,4.341-5.722,8.813-8.78,12.732l-18.951,2.892c-2.464,0.424-5.034,0.688-8.224,0.843c1.463-1.551,2.977-3.176,4.566-4.902
	c3.489-3.843,6.717-8.052,9.84-12.12l2.169-2.813c6.881-9.179,14.031-19.197,20.005-30.699l4.812-9.266l-10.165,2.388
	c-1.314,0.31-2.62,0.659-3.922,1.01c-2.658,0.717-5.169,1.393-7.633,1.645l-2.298,0.234l-1.247,1.94
	c-4.405,6.837-9.381,13.964-14.792,21.179c-2.336,3.199-4.879,6.275-8.286,10.021c-2.924,3.284-5.997,6.594-9.132,9.846
	c-3.796,3.945-8.163,8.444-12.714,12.705L278.406,594.161z" fill="transparent" fill-opacity="0"></path>
<path id="frame_x5F_1_114_" d="M566.494,281.202c-3.357-2.877-6.594-5.694-10.01-8.332c-3.597-2.637-7.194-5.215-10.791-7.613
	l-1.856-12.348c9.53,6.174,19.598,13.127,29.069,20.98c8.991,7.852,18.102,16.544,27.094,26.014l-1.018-20.919
	c-0.179-3.536-0.299-7.013-0.6-10.49l-1.557-10.37c-5.274-4.376-10.49-8.512-15.705-12.348c-7.194-5.455-15.465-10.19-22.958-14.686
	c-3.834-2.158-7.671-4.316-11.45-6.294c-3.714-1.978-7.97-3.716-11.927-5.455l-4.256-11.688c5.336,2.098,10.73,4.376,16.244,6.833
	c5.456,2.518,11.21,5.155,16.244,8.212c10.25,5.994,21.398,12.707,31.469,20.5c-1.019-6.953-3.237-13.667-4.856-20.44l-2.637-10.19
	c-0.84-3.417-2.277-6.654-3.416-9.951c-5.994-3.237-11.93-6.294-17.804-9.111c-7.911-4.016-17.084-7.073-25.294-10.01
	c-8.453-2.817-16.425-5.454-25.177-7.133l-6.474-10.669c5.634,1.079,11.45,2.278,17.324,3.656l8.871,2.218
	c2.936,0.779,5.693,1.798,8.573,2.758c5.693,1.918,11.508,4.076,17.382,6.414c5.933,2.277,11.927,4.735,17.441,7.672
	c-2.157-6.653-5.754-12.768-8.631-19.121c-3.056-6.294-5.874-12.768-9.77-18.642c-6.533-2.038-12.945-3.836-19.241-5.514
	c-8.573-2.398-17.982-3.776-26.734-5.035c-8.871-1.139-17.084-2.278-26.014-2.218l-8.391-9.291
	c23.315-0.42,47.772,2.517,72.588,9.171c-3.419-6.114-7.973-11.509-12.05-17.203c-4.314-5.514-8.213-11.389-13.065-16.364
	c-6.834-0.779-13.487-1.379-20.022-1.798c-3.714-0.3-7.493-0.42-11.268-0.42c-5.336,0-10.73,0.24-15.884,0.479
	c-8.991,0.6-17.262,1.019-26.014,2.697L443.91,97.66c22.838-4.855,47.476-6.533,73.01-4.675c-4.496-5.335-9.89-9.83-15.044-14.626
	c-5.277-4.556-10.133-9.65-15.887-13.667c-6.893,0.54-13.545,1.259-20.019,2.098c-8.871,0.899-18.041,3.057-26.675,5.155
	c-4.314,1.079-8.511,2.218-12.647,3.417l-6.114,1.798l-6.234,2.338l-11.21-5.455c21.459-9.111,45.316-15.405,70.791-18.342
	c-5.453-4.436-11.567-7.912-17.561-11.569l-8.991-5.395l-4.496-2.698l-4.736-2.338c-6.594,1.858-13.007,3.776-19.241,5.814
	c-4.376,1.499-8.514,2.757-12.77,4.616c-4.256,1.798-8.391,3.656-12.407,5.574c-8.151,3.896-15.644,7.313-23.078,12.048
	l-12.108-3.057c9.591-6.294,20.201-13.007,31.109-17.742c10.911-5.035,22.899-10.43,34.946-13.787
	c-3.237-1.439-6.293-3.177-9.588-4.376l-9.831-3.656c-6.653-2.278-13.068-5.155-19.9-6.833c-6.176,3.117-12.111,6.234-17.804,9.471
	c-4.016,2.278-7.911,4.556-11.628,6.833c-3.837,2.577-7.554,5.215-11.21,7.852c-7.194,5.395-13.967,10.549-20.321,16.184
	l-12.465-0.599c4.133-4.136,8.45-8.152,13.007-12.228c4.554-4.076,9.231-7.373,14.145-11.089c9.77-7.193,20.499-14.566,31.648-20.2
	l-10.188-2.577l-10.37-1.619c-6.954-1.019-13.847-2.218-20.801-2.997c-5.453,4.256-10.668,8.512-15.705,12.828
	c-13.964,11.389-26.134,25.415-36.565,38.423c-4.194,0.12-8.271,1.139-12.407,1.678c3.299-4.795,6.776-9.95,10.49-14.446
	c3.779-4.496,7.733-8.991,11.868-13.547c4.136-4.496,8.453-8.991,13.007-13.547c4.557-4.076,9.293-8.152,14.268-12.168
	c-13.967-1.259-27.995,0.06-41.959,0.66c-4.616,4.735-8.871,10.369-13.01,15.464c-5.693,7.373-11.028,14.206-15.764,21.879
	c-4.736,7.732-8.991,15.405-12.887,22.898c-4.077,0.839-7.911,2.398-11.868,3.836c4.496-11.209,10.25-21.039,16.604-31.709
	c6.354-10.849,13.785-20.44,21.998-30.391c-6.893,1.139-13.905,1.858-20.74,3.477l-20.38,5.215
	c-3.658,5.455-6.834,11.629-9.89,17.563c-4.197,8.272-8.034,16.304-11.33,24.456c-3.117,8.512-5.874,16.843-8.213,24.995
	c-1.859,0.899-3.776,1.739-5.634,2.757l-5.336,3.237c0-0.06,1.979-8.751,1.979-8.751c0.72-2.877,1.618-5.575,2.458-8.392
	c1.797-5.635,3.717-11.329,5.874-17.143c4.077-11.928,9.711-22.538,15.764-34.047c-6.594,2.397-13.185,4.735-19.721,7.313
	l-18.939,9.111c-1.2,3.177-2.4,6.174-3.477,9.351l-2.938,9.711c-2.517,8.931-4.674,17.683-6.474,26.134
	c-1.437,8.991-2.576,17.743-3.296,26.194l-5.034,3.716l-4.616,4.196c0.659-23.317,4.733-47.654,12.588-72.049l-17.924,10.969
	l-16.844,12.528l-1.677,9.831l-1.019,10.07c-0.781,9.231-1.261,18.222-1.44,26.914c0.24,9.051,0.84,17.862,1.677,26.314
	l-4.194,4.615c-1.32,1.618-2.517,3.357-3.776,4.975c-2.099-13.007-3.179-26.554-3.179-40.46c0-10.669,0.6-21.579,1.979-32.668
	L88.043,87.471l-14.148,15.525l0.182,9.89c0.178,3.357,0.538,6.773,0.898,10.07c0.96,9.291,2.157,18.222,3.656,26.794
	c1.859,8.812,4.197,17.383,6.594,25.475c-2.157,3.537-4.376,7.073-5.994,10.909c-8.031-21.819-13.247-45.975-14.985-71.57
	l-12.588,16.843c-3.776,5.875-7.311,11.928-10.97,17.863c1.258,6.593,2.698,12.947,4.797,19.481
	c2.696,8.931,5.634,17.443,8.751,25.595c3.357,8.212,7.373,16.244,11.33,23.737c-1.382,3.956-3.117,7.792-3.957,11.868
	c-3.296-5.095-5.816-10.13-8.453-15.465c-2.637-5.274-5.216-10.789-7.733-16.424c-2.637-5.754-4.616-11.449-6.533-17.323
	c-1.917-5.935-3.776-11.988-5.514-18.282L24.264,181.4c-2.757,6.473-4.976,13.127-7.434,19.721
	c2.637,6.234,5.037,12.168,8.391,18.162c4.378,8.212,8.874,16.064,13.548,23.437c4.557,7.433,10.37,14.566,15.585,21.219
	c-0.539,4.136-1.44,8.212-1.68,12.348c-7.733-8.631-14.745-18.042-21.998-28.232c-6.893-10.19-12.585-20.98-18.58-32.608
	l-5.216,20.38c-1.8,6.773-2.339,13.787-3.539,20.68c3.779,5.634,7.314,11.029,11.511,16.244
	c12.047,14.506,23.377,27.273,37.162,38.363l0.659,12.467c-8.93-7.073-17.982-14.985-27.032-23.677
	c-8.151-8.632-16.305-18.162-24.337-28.472c-0.6,13.966-2.099,27.993-0.779,41.959c4.736,4.796,9.53,9.411,14.327,13.727
	c6.893,6.054,14.444,11.629,21.518,16.783c3.597,2.578,7.194,5.035,10.73,7.373c3.717,2.338,7.671,4.496,11.45,6.534l3.056,12.108
	c-10.01-5.215-20.979-11.149-30.931-18.102c-9.65-6.953-19.841-14.746-29.371-23.377c0.6,6.953,1.917,13.846,2.936,20.8l1.56,10.37
	c0.72,3.417,1.677,6.833,2.517,10.19c5.696,3.836,11.33,7.433,16.903,10.789c1.92,1.199,3.837,2.338,5.816,3.477l6.173,3.117
	c4.139,2.038,8.213,3.956,12.228,5.815c8.093,3.656,15.825,6.953,24.336,9.471l5.456,11.269c-5.634-1.618-11.148-3.357-16.902-5.335
	c-5.696-1.918-11.57-4.016-16.905-6.594c-5.514-2.457-11.028-5.155-16.662-8.032c-5.576-2.877-11.508-5.874-16.662-9.351
	c0.477,1.738,0.898,3.417,1.376,5.095l1.8,4.915l3.597,9.891c2.397,6.593,4.674,13.247,7.911,19.481
	c6.354,2.637,12.588,5.095,18.703,7.313c8.271,3.297,17.564,5.455,26.134,7.553c8.693,2.038,16.782,3.896,25.657,4.735l7.493,10.01
	c-23.259-1.738-47.356-7.013-71.391-16.005c2.816,6.414,6.831,12.168,10.37,18.222c3.717,5.934,7.074,12.108,11.447,17.623
	c6.714,1.379,13.308,2.577,19.782,3.656c8.751,1.559,18.222,2.038,27.035,2.457c8.991,0.3,17.262,0.66,26.134-0.24l9.231,8.452
	c-23.198,2.637-47.833,2.038-73.13-2.278c4.016,5.754,8.93,10.729,13.607,16.004c4.794,5.095,9.173,10.55,14.567,15.105
	c6.831,0.12,13.545,0.06,20.081-0.18c8.93-0.06,18.281-1.318,27.032-2.637c8.871-1.439,17.022-2.578,25.595-5.095l10.668,6.473
	c-22.238,7.013-46.575,11.029-72.228,11.569c5.034,4.915,10.788,8.931,16.364,13.127c5.693,4.076,11.028,8.692,17.143,12.108
	c6.773-1.199,13.367-2.517,19.721-3.956c8.813-1.798,17.684-4.676,26.075-7.673c4.194-1.499,8.271-3.057,12.287-4.616
	c3.957-1.499,7.914-3.237,11.868-5.274l11.69,4.316c-10.13,5.215-21.339,10.969-32.608,14.686
	c-5.754,2.038-11.628,3.956-17.684,5.814c-3.056,0.839-6.173,1.858-9.231,2.577l-9.228,1.978c5.871,3.836,12.287,6.773,18.579,9.831
	l9.471,4.556c3.117,1.559,6.354,2.997,9.65,4.076c6.474-2.458,12.65-5.035,18.644-7.673c4.194-1.858,8.21-3.596,12.287-5.694
	c4.016-2.218,7.973-4.496,11.81-6.773c7.733-4.676,14.924-8.991,21.817-14.206l12.348,1.858
	c-8.991,7.313-18.881,14.805-29.251,20.62c-10.428,6.114-21.819,12.588-33.448,17.083c3.299,1.139,6.536,2.517,9.89,3.477
	l10.191,2.637c6.834,1.678,13.545,3.776,20.441,4.975c5.813-3.716,11.447-7.433,16.841-11.209c3.779-2.637,7.376-5.275,10.911-7.972
	c3.536-2.638,7.013-5.875,10.37-8.812c6.714-5.994,12.945-11.988,18.761-18.042c4.136-0.06,8.333-0.36,12.468-0.539
	c-3.717,4.496-7.671,8.991-11.81,13.487c-4.136,4.076-8.511,8.212-13.007,12.288c-4.554,4.016-9.29,8.092-14.265,12.168
	c-4.976,3.956-10.01,7.253-15.345,10.909l10.37,1.559c3.477,0.48,7.013,0.48,10.49,0.719l20.979,1.019
	c5.034-4.615,9.831-9.531,14.385-14.266c3.179-3.297,6.296-6.654,9.231-9.951c2.997-3.297,5.816-6.593,8.573-10.37
	c5.394-7.193,10.431-14.386,14.985-21.459c4.136-0.42,8.093-1.798,12.167-2.757c-5.573,10.73-12.167,20.141-19.539,29.971
	c-3.717,4.796-7.613,10.07-11.748,14.626c-4.136,4.496-8.453,9.051-13.007,13.547l10.49-0.539c3.474-0.12,6.951-0.36,10.428-0.959
	l20.801-3.177c4.136-5.035,7.911-11.029,11.508-16.544c4.976-7.912,9.591-15.405,13.607-23.257
	c3.957-8.212,7.493-16.244,10.548-24.097c1.978-0.779,3.957-1.318,5.874-2.218l5.634-2.697c-3.416,11.569-8.21,21.819-13.487,33.088
	c-5.274,11.509-11.807,21.579-19.001,32.429c6.773-1.799,13.607-3.357,20.321-5.455l19.721-7.193
	c1.56-3.057,3.059-5.874,4.376-8.991l3.837-9.411c3.416-8.632,6.413-17.083,8.93-25.415c2.339-8.811,4.256-17.383,5.816-25.715
	l5.336-3.237l4.973-3.717c-2.816,23.138-9.17,46.994-19.361,70.491l18.884-9.171l17.982-10.909l2.576-9.591l1.979-9.95
	c1.68-9.111,2.997-18.042,3.957-26.674c0.659-9.051,0.899-17.862,0.837-26.374l4.616-4.136l4.258-4.616
	c0.357,5.335,0.539,10.729,0.539,16.184c0,18.402-2.037,37.463-6.296,56.704l16.844-12.588l15.524-14.086l0.782-9.891
	c0.12-3.417,0.059-6.833,0.059-10.13c-0.059-9.351-0.477-18.342-1.139-26.974c-1.077-8.991-2.517-17.743-4.197-26.014l3.779-5.035
	c1.197-1.679,2.216-3.537,3.296-5.275c5.336,20.26,8.213,42.139,8.213,64.977c0,2.577-0.062,5.155-0.12,7.732l14.145-15.585
	c4.317-5.515,8.453-11.149,12.647-16.784l-1.136-9.89c-0.48-3.237-1.2-6.653-1.8-9.891c-1.859-9.171-3.957-17.922-6.234-26.314
	c-2.637-8.572-5.874-16.903-9.05-24.756c1.797-3.776,3.776-7.433,5.034-11.449c2.757,5.395,4.914,10.67,7.013,16.184
	c2.098,5.574,4.136,11.269,6.056,17.143c0.898,2.937,1.978,5.994,2.757,8.931l2.096,8.931c1.381,6.054,2.64,12.288,3.779,18.702
	l10.908-17.982c3.237-6.174,6.176-12.587,9.231-18.881c-1.979-6.414-3.896-12.588-6.594-18.882
	c-3.597-8.632-7.311-16.844-11.207-24.636c-4.018-7.852-8.933-15.525-13.548-22.598c0.899-4.076,2.397-7.972,2.819-12.168
	c7.071,9.411,12.945,19.361,19.18,30.21c3.237,5.515,5.576,10.909,8.093,16.604c2.517,5.694,4.976,11.569,7.311,17.683l7.194-19.781
	c2.219-6.653,3.656-13.546,5.514-20.26c-3.296-5.994-6.053-11.629-10.01-17.323c-5.216-7.792-10.49-15.165-15.825-22.058
	l-4.016-5.095l-4.496-5.035c-2.997-3.237-5.994-6.414-8.991-9.471l0.659-12.528c8.154,7.912,16.367,16.604,24.456,26.075
	c7.674,9.471,14.567,19.661,21.58,30.69l3.176-20.74l0.781-5.215l0.299-5.275l0.541-10.43c-4.256-5.275-8.573-10.31-12.89-15.105
	C579.74,293.25,573.088,287.016,566.494,281.202z M589.452,332.991c-8.991-12.108-19.241-23.197-28.832-33.088
	c-7.314-6.593-14.567-12.767-21.758-18.342l0.957,18.342l-0.779,15.225c11.45,10.969,20.441,23.017,30.149,36.684
	c4.859,6.833,8.453,13.786,12.65,21.219c-1.259,4.736-2.397,9.531-3.776,14.206c-3.357-6.833-7.074-13.487-10.73-19.781
	c-3.776-6.354-7.074-12.288-11.57-18.222c-5.754-7.852-11.687-15.225-17.622-22.058l-2.757,18.162
	c-0.661,5.035-2.397,9.83-3.477,14.806c2.099,3.177,4.256,6.414,6.354,9.77l3.117,5.095l2.699,5.095
	c3.594,6.893,7.071,14.146,10.367,21.699c3.597,7.733,5.816,15.225,8.453,23.317l-6.413,13.187
	c-2.099-7.433-4.317-14.566-6.714-21.459c-2.458-6.953-4.674-13.427-7.973-20.08c-4.136-8.811-8.45-17.143-12.945-24.995
	l-6.296,17.263c-1.499,4.855-4.136,9.231-6.234,13.846c2.877,7.013,6.056,14.566,8.213,21.998
	c2.157,7.433,4.194,15.165,5.994,23.257c1.979,8.152,2.936,16.064,3.896,24.456l-8.81,11.749
	c-0.661-7.672-1.499-15.165-2.517-22.358c-1.022-7.193-2.099-14.146-4.018-21.219c-2.397-9.47-4.973-18.402-7.97-26.974
	l-9.533,15.705c-2.397,4.496-5.693,8.392-8.69,12.467c1.499,7.433,3.114,15.405,3.954,23.137c0.72,7.733,1.2,15.705,1.44,23.976
	c0.419,8.392-0.12,16.424-0.781,24.756l-10.847,9.831c0.837-7.613,1.379-15.105,1.738-22.358l0.419-10.789
	c0.059-3.537-0.24-7.313-0.419-10.849c-0.541-9.77-1.32-19.002-2.698-27.993c-3.957,4.616-8.213,9.051-12.287,13.667
	c-3.237,3.896-7.136,7.193-10.911,10.61c0.061,7.552,0.12,15.645-0.48,23.437c-0.779,7.732-1.797,15.645-3.117,23.797
	c-1.197,8.332-3.117,16.184-5.394,24.217l-12.527,7.553c2.219-7.313,4.197-14.566,5.933-21.579l2.397-10.49
	c0.72-3.536,1.2-7.253,1.68-10.789c1.259-9.71,2.277-18.822,2.578-27.993c-4.736,3.836-9.773,7.313-14.625,11.089
	c-3.957,3.237-8.333,5.755-12.708,8.392c-1.32,7.433-2.819,15.285-4.917,22.957c-2.157,7.373-4.674,14.985-7.493,22.718
	c-1.437,3.836-2.936,7.852-4.554,11.629c-1.739,3.656-3.477,7.373-5.394,11.149l-13.788,4.975
	c3.659-6.773,6.954-13.427,10.01-20.021c1.499-3.297,2.997-6.533,4.379-9.831l3.656-10.31c3.056-9.291,5.874-17.922,7.853-26.974
	c-5.336,2.997-11.031,5.335-16.484,8.092c-2.277,1.079-4.557,2.278-6.896,3.237l-7.133,2.638c-2.696,7.073-5.754,14.326-9.17,21.639
	c-3.597,6.833-7.493,13.727-11.748,20.74c-2.16,3.536-4.376,7.073-6.714,10.609c-2.277,3.417-4.794,6.594-7.311,9.951l-14.508,2.158
	c9.653-11.988,18.284-23.018,25.297-35.965c4.794-8.512,9.231-16.304,12.828-24.995c-5.696,2.098-11.81,3.177-17.684,4.855
	l-7.373,1.918c-2.458,0.539-4.976,0.779-7.493,1.198c-4.016,6.414-8.391,12.888-13.127,19.421
	c-4.797,6.413-10.01,12.048-15.465,18.162c-2.818,3.057-5.634,6.054-8.573,9.051l-4.496,4.556l-4.613,4.076l-14.628-0.719
	c5.874-4.855,11.391-9.77,16.665-14.626c5.274-4.915,10.25-10.67,14.985-15.945c6.293-7.373,12.167-14.026,17.321-22.178
	c-5.994,1.319-12.228,0.959-18.281,1.439l-7.613,0.42l-3.837,0.24l-3.776-0.24c-10.308,10.729-22.179,22.418-35.186,31.529
	c-6.533,4.736-13.487,9.651-20.74,14.087l-14.207-3.597c6.656-3.656,13.01-7.193,19.182-11.089
	c6.176-4.256,12.05-8.572,17.684-12.888c3.776-2.937,7.431-5.874,10.908-8.811c3.539-3.177,6.954-6.593,10.25-9.83
	c-3.056-0.18-6.114-0.24-9.17-0.48l-9.053-1.438c-5.034-0.839-10.068-1.439-15.044-2.337c-6.056,4.316-12.53,8.571-19.302,12.767
	c-3.416,2.098-6.893,4.136-10.428,6.174c-3.538,1.798-7.074,3.537-10.73,5.215c-7.373,3.477-14.985,6.773-23.019,9.891
	c-4.496-1.918-8.81-4.196-13.247-6.234c7.253-2.338,14.028-4.376,20.921-7.373c6.893-2.937,13.487-5.994,19.78-9.111
	c4.256-2.218,8.333-4.136,12.468-6.713c4.077-2.517,8.031-5.095,11.868-7.672l-8.871-2.218c-2.997-0.719-5.754-2.038-8.693-3.057
	l-14.265-5.215c-6.831,3.237-13.905,6.054-21.398,8.871c-3.717,1.378-7.493,2.757-11.388,4.016
	c-3.899,1.319-7.613,2.158-11.57,3.177c-7.853,1.978-16.004,3.716-24.395,5.275c-4.136-2.638-7.914-5.755-11.868-8.572
	c7.551-0.959,14.564-1.559,21.937-3.297c7.314-1.558,14.327-3.297,21.161-5.155c8.991-2.278,18.161-5.934,26.614-9.471
	c-5.456-2.697-11.148-5.095-16.244-8.512l-13.007-7.912c-7.373,1.978-14.807,3.297-22.66,4.676
	c-7.853,1.319-16.062,2.518-23.976,2.757c-8.031,0.42-16.364,0.6-24.934,0.54c-3.597-3.297-6.656-7.133-10.01-10.669
	c14.684,1.499,29.848,0.959,43.876-0.18c9.29-0.54,19.001-2.457,27.992-4.256c-4.856-3.716-10.071-7.073-14.385-11.449
	l-11.268-10.19c-7.733,0.6-15.167,0.42-23.198,0.3c-7.914-0.24-16.244-0.539-24.038-1.798c-7.97-1.079-16.182-2.457-24.577-4.196
	c-2.997-3.836-5.213-8.212-7.85-12.348c14.145,4.256,29.189,6.534,43.156,8.092c9.173,1.259,19.121,1.199,28.232,1.139
	c-4.016-4.676-8.511-8.872-11.927-13.967l-9.111-12.168c-7.794-0.839-14.985-2.458-22.838-4.076
	c-7.674-1.738-15.884-3.596-23.318-6.294c-7.613-2.577-15.404-5.514-23.318-8.752c-2.277-4.316-3.536-9.111-5.333-13.666
	c12.948,6.953,27.454,11.928,40.759,16.184l6.714,2.038c2.339,0.6,4.736,1.079,7.071,1.618c4.677,1.019,9.293,1.918,13.788,2.757
	l-4.797-7.852c-0.778-1.319-1.616-2.637-2.336-3.956l-1.979-4.136l-6.594-13.726c-7.613-2.218-14.265-5.215-21.638-8.272
	c-3.656-1.559-7.314-3.237-10.97-4.975l-5.573-2.697l-5.216-2.937c-6.954-4.016-13.967-8.332-21.099-13.067
	c-1.379-4.675-2.04-9.53-2.757-14.386l8.81,6.654c3.059,2.158,6.296,4.136,9.471,6.114c6.295,3.896,12.527,7.553,18.702,10.849
	c4.016,2.278,8.391,4.316,12.828,6.234c4.373,1.858,8.751,3.656,13.007,5.275l-3.117-8.632c-1.139-2.817-2.219-5.694-2.819-8.692
	l-3.776-14.746c-7.133-3.596-13.127-7.792-19.721-12.228c-6.413-4.496-13.247-9.291-19.422-14.566
	c-5.994-5.215-12.047-10.849-18.041-16.844c-0.24-4.855-0.658-9.71-0.181-14.626c4.618,5.635,10.311,10.969,15.647,16.004
	c5.394,5.035,10.788,9.771,16.124,14.206c7.554,5.994,15.705,11.329,23.318,16.244c-0.84-6.054-2.04-12.108-2.64-18.222
	l-0.717-15.225c-2.997-2.397-5.994-4.975-8.991-7.613c-2.757-2.577-5.456-5.335-8.213-8.092
	c-5.456-5.634-10.908-11.629-16.305-17.922c-5.213-6.354-9.708-12.948-14.564-19.961c0.837-4.795,1.317-9.651,2.397-14.446
	c8.151,13.007,16.724,24.935,25.715,35.665c6.594,7.313,13.185,14.086,19.779,20.32l0.899-18.342
	c0.421-5.095,1.498-10.07,2.16-15.105c-10.25-11.929-18.281-24.876-26.494-39.321l-2.997-5.515l-2.579-5.514
	c-1.677-3.656-3.357-7.493-5.034-11.329l5.096-13.786c2.816,7.193,5.754,14.086,8.81,20.74c3.117,6.713,5.874,12.947,9.831,19.241
	c4.976,8.392,10.071,16.244,15.284,23.617l4.616-17.802l0.899-3.656l1.32-3.597l2.637-7.133c-3.477-6.653-7.493-13.906-10.25-21.039
	c-2.877-7.193-5.634-14.745-8.213-22.598c-2.757-7.972-4.376-15.765-6.173-23.977l7.613-12.528
	c1.379,7.553,2.936,14.925,4.674,21.998c1.68,7.073,3.419,13.846,5.994,20.74c3.296,9.171,6.773,17.862,10.49,26.074l7.973-16.544
	c1.979-4.676,4.914-8.872,7.493-13.247c-2.219-7.193-4.616-14.985-6.114-22.658c-1.437-7.552-2.696-15.465-3.717-23.676
	c-1.197-8.332-1.437-16.364-1.557-24.756l9.831-10.79c-0.062,7.673,0.058,15.165,0.418,22.418
	c0.299,7.253,0.779,14.326,2.037,21.579c1.498,9.65,3.117,18.762,5.336,27.573c3.536-4.975,7.311-9.83,10.97-14.745
	c2.816-4.196,6.413-7.852,9.828-11.629c-0.778-7.493-1.616-15.525-1.677-23.377c0-7.732,0.24-15.765,0.779-23.977
	c0.421-8.392,1.618-16.364,3.117-24.576l11.748-8.752c-1.557,7.493-2.816,14.866-3.896,22.058l-1.379,10.67
	c-0.36,3.596-0.48,7.313-0.659,10.909c-0.36,9.771-0.48,18.941,0.059,28.113c4.376-4.256,9.053-8.272,13.548-12.408
	c3.594-3.597,7.733-6.534,11.868-9.591c0.6-7.493,1.317-15.525,2.696-23.317c1.44-7.553,3.237-15.345,5.336-23.317
	c1.08-3.956,2.099-8.152,3.416-11.988c1.32-3.836,2.757-7.732,4.256-11.629l13.25-6.354c-2.939,7.133-5.634,14.086-8.034,20.979
	l-3.416,10.19c-0.96,3.476-1.8,7.073-2.637,10.55c-2.219,9.531-4.077,18.522-5.216,27.633c5.034-3.417,10.431-6.354,15.585-9.651
	c2.219-1.259,4.256-2.757,6.533-3.836l6.893-3.297c2.04-7.313,4.317-14.926,7.074-22.418c2.877-7.133,6.114-14.446,9.711-21.818
	c1.739-3.716,3.656-7.493,5.634-11.209c2.037-3.477,4.136-7.013,6.354-10.55l14.204-3.657c-4.194,6.414-8.151,12.708-11.865,19.002
	c-1.8,3.117-3.597,6.114-5.277,9.351l-4.616,9.89c-3.954,8.991-7.551,17.263-10.37,26.135c5.576-2.518,11.45-4.256,17.142-6.474
	l7.136-2.637l7.373-1.858c3.416-6.773,7.133-13.667,11.207-20.68c4.197-6.593,8.813-12.947,13.727-19.541
	c4.917-6.533,10.191-13.367,15.887-19.121l14.625-0.779c-10.73,10.909-20.321,21.279-28.592,33.387
	c-2.819,3.956-5.514,7.852-8.031,11.749c-2.579,3.776-4.976,7.672-7.136,11.988c2.939-0.959,5.936-1.379,8.991-1.798l9.111-1.379
	c4.976-0.779,9.951-1.738,15.105-1.738c4.616-5.934,9.591-11.988,14.927-17.982l4.074-4.496l4.197-4.076
	c2.877-2.757,5.813-5.455,8.871-8.212c5.994-5.275,12.468-11.029,19.241-15.945l14.447,2.218
	c-6.296,4.196-12.29,8.512-17.982,12.827c-5.696,4.736-11.21,9.711-16.364,14.566c-7.013,6.534-13.428,12.948-19.361,20.5
	c6.114-0.66,12.228-0.12,18.401,0.24c5.034,0.36,10.13,0.24,15.167,0.899c5.634-4.855,11.628-9.771,18.041-14.626
	c3.117-2.338,6.474-4.855,9.77-7.073c3.298-2.098,6.714-4.196,10.191-6.294c6.954-4.076,14.265-8.152,21.939-12.048l13.785,4.975
	c-6.954,2.997-13.607,5.815-20.081,9.291c-6.594,3.597-12.887,7.313-18.881,11.029c-4.016,2.577-7.914,5.035-11.69,7.792
	c-3.834,2.937-7.551,5.874-11.148,8.812l9.111,1.378c2.997,0.599,5.874,1.498,8.871,2.218l14.745,3.776
	c6.474-3.716,13.247-7.313,20.379-10.849c3.597-1.738,7.253-3.417,11.031-5.095c3.656-1.558,7.373-2.877,11.207-4.256
	c7.554-2.697,15.527-5.215,23.798-7.613c4.317,2.338,8.391,5.035,12.588,7.493c-7.434,1.679-14.388,2.937-21.518,5.335
	c-7.136,2.278-13.967,4.675-20.561,7.193c-8.751,3.117-17.502,7.553-25.595,11.928c5.696,2.098,11.567,4.016,16.964,6.953
	l13.727,6.594c7.133-2.637,14.385-4.676,22.118-6.773c7.671-2.098,15.702-4.016,23.555-5.035c7.973-1.199,16.247-2.158,24.817-2.937
	c3.837,2.997,7.314,6.474,10.97,9.711c-7.613,0.24-14.625,0.12-22.18,1.199c-7.373,0.839-14.564,1.918-21.518,3.117
	c-9.173,1.379-18.641,4.196-27.454,6.893c5.216,3.237,10.671,6.114,15.407,10.01l12.228,9.111
	c7.551-1.258,15.044-1.858,23.017-2.517c7.911-0.54,16.182-0.959,24.097-0.48c8.031,0.36,16.364,0.959,24.875,1.858
	c3.296,3.597,5.994,7.733,8.991,11.569c-14.505-2.937-29.672-3.776-43.756-4.016c-9.231-0.36-19.124,0.659-28.232,1.618
	c4.434,4.196,9.348,7.972,13.247,12.707l10.25,11.269c7.733,0.12,15.164,1.019,23.075,1.918c7.853,0.959,16.185,2.038,23.798,4.016
	c7.853,1.858,15.884,4.016,24.038,6.534c2.634,4.076,4.434,8.691,6.653,13.007c-13.607-5.574-28.472-9.231-42.14-12.168
	c-9.05-2.098-19.001-2.937-28.051-3.716c3.536,4.975,7.671,9.531,10.548,14.985l7.911,13.007c7.733,1.498,14.687,3.836,22.361,6.174
	c7.431,2.457,15.524,5.095,22.595,8.512c7.314,3.297,14.807,6.953,22.361,10.969c1.856,4.496,2.757,9.351,4.074,14.026
	c-12.228-8.092-26.312-14.446-39.082-19.961l-6.474-2.637l-6.893-2.338c-4.554-1.439-9.05-2.757-13.487-4.016l4.016,8.272
	l1.978,4.136l1.619,4.316l5.216,14.266l5.394,2.278l5.096,2.577c3.416,1.738,6.834,3.537,10.25,5.455
	c6.773,3.896,14.265,7.972,20.678,12.648c6.474,4.616,13.068,9.65,19.662,15.045l1.08,7.253l0.36,7.313
	c-2.698-2.577-5.336-5.095-8.154-7.493l-8.871-6.953c-5.874-4.496-11.687-8.691-17.502-12.588
	c-7.791-5.335-16.604-9.831-24.697-13.966c1.379,5.994,3.419,11.809,4.317,17.863l2.277,15.045
	c6.714,4.256,12.527,8.991,18.521,14.086c5.994,5.035,12.05,10.49,18.044,16.244c5.453,5.815,10.908,11.988,16.305,18.462
	C590.11,323.281,590.292,328.196,589.452,332.991z" fill="#000000" fill-opacity="1"></path></g></g><g ><path d="M306.92 198.28L306.92 198.28Q306.55 198.13 306.02 197.75Q305.50 197.38 304.52 197.04Q303.55 196.70 302.05 196.47Q300.55 196.25 298.22 196.40L298.22 196.40L298.22 188.82Q301.52 188.90 304.94 189.54Q308.35 190.18 310.45 191.53L310.45 191.53Q310.00 192.50 309.40 193.66Q308.80 194.82 308.27 195.84Q307.75 196.85 307.37 197.53Q307.00 198.20 306.92 198.28ZM281.05 204.28L281.05 204.28Q281.05 200.97 282.17 198.35Q283.30 195.72 285.21 193.74Q287.12 191.75 289.71 190.59Q292.30 189.43 295.15 189.05L295.15 189.05L295.15 196.93Q292.75 197.75 291.17 199.81Q289.60 201.88 289.60 203.97L289.60 203.97Q289.60 206.90 291.17 208.70Q292.75 210.50 295.15 211.85L295.15 211.85L295.15 220.40Q292.67 219.20 290.20 217.81Q287.72 216.43 285.70 214.55Q283.67 212.68 282.36 210.20Q281.05 207.72 281.05 204.28ZM280.67 241.32L282.25 234.88Q283.30 235.47 284.91 236.04Q286.52 236.60 288.25 237.09Q289.97 237.57 291.70 237.88Q293.42 238.18 294.92 238.18L294.92 238.18L295.15 238.18L295.15 245.30L295.00 245.30Q293.20 245.30 291.29 245.11Q289.37 244.93 287.42 244.47Q285.47 244.03 283.71 243.24Q281.95 242.45 280.67 241.32L280.67 241.32ZM298.22 222.13L298.22 213.35Q300.70 214.47 303.29 215.75Q305.87 217.03 307.97 218.86Q310.07 220.70 311.42 223.32Q312.77 225.95 312.77 229.85L312.77 229.85Q312.77 232.55 311.76 235.10Q310.75 237.65 308.91 239.71Q307.07 241.78 304.37 243.20Q301.67 244.63 298.22 245.07L298.22 245.07L298.22 237.88Q304.37 236.38 304.37 229.70L304.37 229.70Q304.37 227.07 302.65 225.35Q300.92 223.63 298.22 222.13L298.22 222.13Z" data-element="initials" data-text-path="" data-text="S" data-font-family="Allerta Stencil" fill="#000000" fill-opacity="1"></path><path d="M354.47 230.60L348.65 230.60L347.05 221.32L338.60 221.32L337.13 230.60L331.37 230.60L338.47 190.54L346.86 190.54L354.47 230.60ZM342.63 195.53L339.30 216.65L346.28 216.65L342.63 195.53Z" data-element="company-name" data-text-path="" data-text="A" data-font-family="Teko" fill="#000000" fill-opacity="1"></path></g></g></svg>